<?xml version="1.0" standalone="no"?>
<!DOCTYPE svg PUBLIC "-//W3C//DTD SVG 20010904//EN"
 "http://www.w3.org/TR/2001/REC-SVG-20010904/DTD/svg10.dtd">
<svg version="1.0" xmlns="http://www.w3.org/2000/svg"
 width="270.000000pt" height="270.000000pt" viewBox="0 0 270.000000 270.000000"
 preserveAspectRatio="xMidYMid meet">
<metadata>
Created by potrace 1.11, written by Peter Selinger 2001-2013
</metadata>
<g transform="translate(0.000000,270.000000) scale(0.100000,-0.100000)"
fill="#000000" stroke="none">
<path d="M1239 2406 c-188 -101 -1089 -631 -1106 -652 -28 -30 -31 -107 -8
-142 9 -12 47 -40 85 -63 39 -23 70 -43 70 -44 0 -1 -31 -21 -70 -44 -83 -50
-100 -71 -100 -131 0 -60 17 -81 100 -131 39 -23 70 -43 70 -44 0 -1 -31 -21
-70 -44 -85 -51 -100 -71 -100 -135 0 -42 4 -53 32 -79 18 -16 276 -170 573
-343 395 -229 552 -315 583 -320 106 -16 99 -19 687 320 303 175 562 331 578
347 22 24 27 39 27 78 0 61 -21 89 -103 137 -34 20 -63 37 -65 39 -2 2 26 20
62 40 85 47 106 74 106 135 0 60 -21 88 -103 136 -34 20 -63 37 -65 39 -2 2
26 20 62 40 85 48 106 74 106 136 0 39 -5 55 -27 79 -32 34 -1089 645 -1143
660 -62 17 -133 12 -181 -14z m344 -272 c162 -97 197 -122 195 -139 -4 -24
-389 -254 -428 -255 -22 0 -381 194 -423 229 -39 32 -22 47 191 171 168 98
213 120 237 116 17 -2 119 -57 228 -122z m-503 -292 c148 -89 195 -122 195
-137 0 -15 -47 -47 -200 -137 -126 -74 -211 -117 -229 -118 -34 0 -430 221
-440 246 -3 9 -4 20 -1 24 5 9 388 233 415 243 30 11 67 -6 260 -121z m1001 1
c109 -64 200 -122 203 -128 2 -7 1 -16 -2 -22 -14 -21 -409 -243 -433 -243
-13 0 -116 53 -229 118 -159 91 -205 121 -205 137 0 28 385 254 434 255 26 0
81 -28 232 -117z m-515 -284 c216 -127 214 -126 214 -148 0 -21 -397 -251
-433 -251 -26 0 -386 197 -422 231 -14 14 -17 23 -10 35 18 28 398 243 431
244 22 0 86 -33 220 -111z m-879 -290 c123 -72 223 -135 223 -140 0 -13 -36
-29 -65 -29 -34 0 -430 223 -439 247 -7 18 24 53 47 53 6 0 111 -59 234 -131z
m1581 111 c12 -11 19 -26 17 -33 -8 -18 -408 -247 -433 -247 -23 0 -72 20 -72
29 0 6 449 269 461 270 3 1 15 -8 27 -19z m-1166 -352 c77 -45 163 -87 191
-95 83 -21 122 -10 290 87 135 78 154 87 172 75 49 -31 35 -45 -178 -167 -138
-80 -214 -118 -233 -117 -34 1 -411 214 -428 242 -9 15 -7 22 13 38 13 10 26
19 29 19 2 0 68 -37 144 -82z m-415 -109 c123 -72 223 -135 223 -140 0 -13
-36 -29 -65 -29 -34 0 -430 223 -439 247 -7 18 24 53 47 53 6 0 111 -59 234
-131z m1581 111 c12 -11 19 -26 17 -33 -8 -18 -408 -247 -433 -247 -23 0 -72
20 -72 29 0 6 449 269 461 270 3 1 15 -8 27 -19z m-1166 -352 c77 -45 163 -87
191 -95 83 -21 122 -10 290 87 135 78 154 87 172 75 49 -31 35 -45 -178 -167
-138 -80 -214 -118 -233 -117 -34 1 -411 214 -428 242 -9 15 -7 22 13 38 13
10 26 19 29 19 2 0 68 -37 144 -82z"/>
</g>
</svg>
